# xmcd
#
# Track frame offsets: 
#        150
#        10719
#        22145
#        36777
#        48814
#        62511
#        75924
#        85706
#        97095
#        111020
#        118858
#        135183
#        147573
#        158221
#        169146
#        182445
#
# Disc length: 2585 seconds
#
# Revision: 3
# Processed by: cddbd v1.5.2PL0 Copyright (c) Steve Scherf et al.
# Submitted via: ExactAudioCopy v0.95b4
#
DISCID=c10a1710
DTITLE=Various Artist - Country Vol 2
DYEAR=1998
DGENRE=Country
TTITLE0=Frankie Laine - Mule Skinner Blues
TTITLE1=Johnny Cash - Mean Eyed Cat
TTITLE2=Loretta Lyn - Coal Miner's Daughter
TTITLE3=Kenny Rogers - Ruby, Don't Take Your Love To Town
TTITLE4=Freddy Fender - Baby I Want To Love You
TTITLE5=Don Williams - Ruby Tuesday
TTITLE6=Donna Fargo - Sticks and Stones
TTITLE7=George Jones - I Can't Change Overnight
TTITLE8=Willie Nelson - Home Is Where You're Happy
TTITLE9=George Jones - Jambalaya
TTITLE10=Rex Allen Jr - Memory Train
TTITLE11=Sandy Posey - Single Girl
TTITLE12=Carl Perkins - What Am I Living For
TTITLE13=Patsy Cline - Honky Tonk Merry Go-Round
TTITLE14=Bobby Helms - My Special Angel
TTITLE15=Brenda Lee - Silver Threads and Golden Needles
EXTD=
EXTT0=
EXTT1=
EXTT2=
EXTT3=
EXTT4=
EXTT5=
EXTT6=
EXTT7=
EXTT8=
EXTT9=
EXTT10=
EXTT11=
EXTT12=
EXTT13=
EXTT14=
EXTT15=
PLAYORDER=
